<svg width="104" height="135" viewBox="0 0 104 135" fill="none" xmlns="http://www.w3.org/2000/svg">
<path d="M60.523 33.8998V0.508301H13.4325C6.33946 0.508301 0.5896 6.11442 0.5896 13.0301V121.552C0.5896 128.466 6.33946 134.074 13.4325 134.074H90.4898C97.5828 134.074 103.333 128.468 103.333 121.552V42.2477H69.3258C64.3492 42.2477 60.523 38.5172 60.523 33.8998ZM47.6802 105.9C47.6802 108.705 44.234 110.069 42.1952 108.113L32.6968 98.5958H20.9242C19.1529 98.5958 17.7134 97.1871 17.7134 95.4654V80.8566C17.7134 79.1348 19.1529 77.7261 20.9242 77.7261H32.6968L42.1952 68.2043C44.2286 66.2217 47.6802 67.6304 47.6802 70.4217V105.9ZM60.523 101.674C59.3482 101.674 58.1819 101.195 57.3364 100.274C55.7562 98.5538 55.9026 95.9201 57.6626 94.3809C59.5063 92.7784 60.523 90.561 60.523 88.161C60.523 85.761 59.5071 83.5462 57.6628 81.9314C55.9028 80.3907 55.7565 77.7574 57.3367 76.0383C58.9212 74.3181 61.631 74.1877 63.3809 75.7203C66.998 78.9001 69.085 83.4131 69.085 88.161C69.085 92.9088 67.0071 97.4297 63.3833 100.602C62.5565 101.309 61.5398 101.674 60.523 101.674ZM86.2088 88.161C86.2088 99.068 80.7238 109.32 71.5358 115.579C70.8182 116.067 69.9641 116.329 69.089 116.329C67.7386 116.329 66.4054 115.709 65.5732 114.543C64.2229 112.652 64.6954 110.051 66.6352 108.731C73.5265 104.048 77.6469 96.3523 77.6469 88.161C77.6469 79.9696 73.5318 72.2896 66.6395 67.6043C64.6997 66.2838 64.2242 63.6834 65.5746 61.7921C66.925 59.8927 69.5853 59.4281 71.5331 60.7567C80.7238 67.0043 86.2088 77.2566 86.2088 88.161ZM69.085 0.508301V33.8998H103.333L69.085 0.508301Z" fill="#E08589"/>
</svg>
