<svg width="136" height="138" viewBox="0 0 136 138" fill="none" xmlns="http://www.w3.org/2000/svg">
<path d="M14.4869 42.5908C6.35644 44.7724 0.370605 52.1933 0.370605 61.0123V81.8178C0.370605 92.3508 8.90929 100.889 19.4423 100.889H36.7802C39.6528 100.889 41.9815 98.5608 41.9815 95.6881V47.142C41.9815 44.2694 39.6528 41.9407 36.7802 41.9407H25.0932C28.0696 24.811 45.5089 10.7324 67.9884 10.7324C90.4678 10.7324 107.907 24.811 110.884 41.9407H99.1966C96.324 41.9407 93.9952 44.2694 93.9952 47.142V95.6881C93.9952 98.5608 96.324 100.889 99.1966 100.889H110.73C108.382 110.83 99.4516 118.227 88.7937 118.227H80.8505C78.7928 113.144 73.8094 109.558 67.9884 109.558C60.328 109.558 54.1181 115.768 54.1181 123.429C54.1181 131.089 60.328 137.299 67.9884 137.299C73.8094 137.299 78.7928 133.713 80.8505 128.63H88.7937C105.437 128.63 119.197 116.288 121.421 100.258C129.587 98.0994 135.606 90.6615 135.606 81.8178V61.0123C135.606 52.1933 129.62 44.7724 121.49 42.5908C118.844 18.2889 95.2172 0.329712 67.9884 0.329712C40.7595 0.329712 17.1324 18.2889 14.4869 42.5908Z" fill="#E08589"/>
</svg>
