<svg width="54" height="55" viewBox="0 0 54 55" fill="none" xmlns="http://www.w3.org/2000/svg">
<path d="M27.0541 36.182C31.9746 36.182 35.9635 32.1931 35.9635 27.2726C35.9635 22.3521 31.9746 18.3633 27.0541 18.3633C22.1336 18.3633 18.1448 22.3521 18.1448 27.2726C18.1448 32.1931 22.1336 36.182 27.0541 36.182Z" fill="#EFA6A6"/>
<path d="M53.5983 16.3578C53.5684 14.1108 53.1477 11.8862 52.3552 9.78336C51.6679 8.00965 50.6183 6.39881 49.2732 5.05375C47.9281 3.7087 46.3173 2.659 44.5436 1.97174C42.4678 1.19252 40.2749 0.77119 38.0581 0.725675C35.2041 0.598102 34.2992 0.5625 27.0542 0.5625C19.8093 0.5625 18.8806 0.5625 16.0473 0.725675C13.8316 0.771524 11.6397 1.19285 9.56485 1.97174C7.79087 2.65852 6.17978 3.70805 4.83466 5.05317C3.48954 6.39829 2.44002 8.00938 1.75323 9.78336C0.972457 11.8576 0.552037 14.05 0.510136 16.2658C0.382563 19.1229 0.343994 20.0278 0.343994 27.2727C0.343994 34.5177 0.343994 35.4433 0.510136 38.2796C0.554638 40.4988 0.972958 42.6883 1.75323 44.768C2.44117 46.5415 3.49148 48.1519 4.83704 49.4965C6.18261 50.841 7.79385 51.8901 9.56782 52.5767C11.637 53.3872 13.8293 53.8387 16.0503 53.9118C18.9074 54.0393 19.8122 54.0779 27.0572 54.0779C34.3022 54.0779 35.2308 54.0779 38.0641 53.9118C40.2807 53.8681 42.4738 53.4477 44.5495 52.6687C46.3228 51.9806 47.9332 50.9306 49.2782 49.5857C50.6231 48.2407 51.6731 46.6303 52.3612 44.857C53.1414 42.7803 53.5597 40.5908 53.6042 38.3686C53.7318 35.5145 53.7704 34.6097 53.7704 27.3617C53.7645 20.1168 53.7645 19.1971 53.5983 16.3578ZM27.0364 40.9735C19.4592 40.9735 13.3208 34.8351 13.3208 27.2579C13.3208 19.6807 19.4592 13.5423 27.0364 13.5423C30.674 13.5423 34.1626 14.9873 36.7348 17.5595C39.307 20.1317 40.752 23.6203 40.752 27.2579C40.752 30.8955 39.307 34.3841 36.7348 36.9563C34.1626 39.5284 30.674 40.9735 27.0364 40.9735ZM41.2979 16.2332C40.8778 16.2336 40.4617 16.1511 40.0735 15.9906C39.6853 15.83 39.3326 15.5944 39.0355 15.2973C38.7385 15.0003 38.5029 14.6476 38.3423 14.2594C38.1817 13.8712 38.0993 13.4551 38.0997 13.035C38.0997 12.6152 38.1824 12.1995 38.343 11.8116C38.5037 11.4238 38.7391 11.0714 39.036 10.7745C39.3328 10.4777 39.6852 10.2422 40.0731 10.0816C40.4609 9.92093 40.8766 9.83825 41.2964 9.83825C41.7162 9.83825 42.1319 9.92093 42.5198 10.0816C42.9076 10.2422 43.26 10.4777 43.5569 10.7745C43.8537 11.0714 44.0892 11.4238 44.2498 11.8116C44.4105 12.1995 44.4932 12.6152 44.4932 13.035C44.4932 14.8032 43.0632 16.2332 41.2979 16.2332Z" fill="#EFA6A6"/>
</svg>
