<svg width="124" height="124" viewBox="0 0 124 124" fill="none" xmlns="http://www.w3.org/2000/svg">
<g clip-path="url(#clip0_92_198)">
<path d="M20.6216 31.0972C23.331 31.0972 25.9796 30.1933 28.2324 28.4999C30.4852 26.8065 32.2411 24.3995 33.2779 21.5835C34.3148 18.7674 34.586 15.6687 34.0575 12.6791C33.5289 9.6896 32.2242 6.94354 30.3083 4.78821C28.3925 2.63288 25.9515 1.16508 23.2942 0.570426C20.6368 -0.0242287 17.8824 0.280969 15.3792 1.44743C12.876 2.61388 10.7365 4.58921 9.23124 7.12361C7.72597 9.65801 6.92253 12.6377 6.92253 15.6858C6.92253 19.7731 8.36583 23.6931 10.9349 26.5833C13.504 29.4735 16.9884 31.0972 20.6216 31.0972ZM20.6216 73.498C20.6186 72.058 20.8758 70.6323 21.3777 69.3077C21.8796 67.983 22.6157 66.787 23.5412 65.7922L38.9805 49.3983C39.3337 49.0251 39.7875 48.8421 40.1813 48.5386C39.174 45.6698 37.4236 43.2076 35.1572 41.4716C32.8908 39.7356 30.213 38.8059 27.4711 38.8029H13.7721C10.1389 38.8029 6.65444 40.4266 4.08536 43.3168C1.51629 46.2071 0.072998 50.127 0.072998 54.2144L0.072998 77.3316C0.072998 79.3753 0.794644 81.3352 2.07918 82.7804C3.36372 84.2255 5.10592 85.0373 6.92253 85.0373V115.86C6.92253 117.904 7.64418 119.864 8.92872 121.309C10.2133 122.754 11.9555 123.566 13.7721 123.566H27.4711C29.2878 123.566 31.03 122.754 32.3145 121.309C33.599 119.864 34.3207 117.904 34.3207 115.86V92.6491L23.5412 81.2037C22.6154 80.2093 21.8791 79.0133 21.3772 77.6885C20.8753 76.3638 20.6182 74.938 20.6216 73.498ZM102.816 31.0972C105.525 31.0972 108.174 30.1933 110.427 28.4999C112.68 26.8065 114.435 24.3995 115.472 21.5835C116.509 18.7674 116.78 15.6687 116.252 12.6791C115.723 9.6896 114.419 6.94354 112.503 4.78821C110.587 2.63288 108.146 1.16508 105.489 0.570426C102.831 -0.0242287 100.077 0.280969 97.5736 1.44743C95.0705 2.61388 92.931 4.58921 91.4257 7.12361C89.9204 9.65801 89.117 12.6377 89.117 15.6858C89.117 19.7731 90.5603 23.6931 93.1293 26.5833C95.6984 29.4735 99.1828 31.0972 102.816 31.0972ZM109.666 38.8029H95.9665C93.2249 38.8057 90.5473 39.7351 88.2809 41.4706C86.0146 43.2062 84.264 45.6678 83.2563 48.5362C83.6502 48.8421 84.1125 49.0178 84.4593 49.4007L99.8964 65.7898C100.819 66.7869 101.553 67.9834 102.055 69.3076C102.556 70.6317 102.815 72.0562 102.815 73.4956C102.815 74.9349 102.556 76.3594 102.055 77.6836C101.553 79.0077 100.819 80.2042 99.8964 81.2013L89.117 92.6515V115.86C89.117 117.904 89.8386 119.864 91.1232 121.309C92.4077 122.754 94.1499 123.566 95.9665 123.566H109.666C111.482 123.566 113.224 122.754 114.509 121.309C115.793 119.864 116.515 117.904 116.515 115.86V85.0373C118.332 85.0373 120.074 84.2255 121.358 82.7804C122.643 81.3352 123.365 79.3753 123.365 77.3316V54.2144C123.365 50.127 121.921 46.2071 119.352 43.3168C116.783 40.4266 113.299 38.8029 109.666 38.8029ZM95.1959 71.3933L79.7588 55.0042C79.3944 54.6135 78.936 54.3518 78.4405 54.2516C77.945 54.1515 77.4343 54.2174 76.9718 54.4411C76.5094 54.6648 76.1155 55.0365 75.8393 55.5099C75.563 55.9834 75.4165 56.5377 75.4179 57.104V65.773H48.0198V57.104C48.0216 56.5375 47.8754 55.9828 47.5993 55.509C47.3232 55.0352 46.9294 54.6632 46.4668 54.4392C46.0042 54.2152 45.4933 54.1491 44.9977 54.2491C44.502 54.3492 44.0434 54.6109 43.6789 55.0018L28.2417 71.3933C27.7483 71.9527 27.4714 72.7088 27.4714 73.4968C27.4714 74.2848 27.7483 75.0409 28.2417 75.6002L43.6789 91.9917C44.0435 92.3828 44.5023 92.6446 44.9982 92.7446C45.4941 92.8445 46.0051 92.7782 46.4678 92.5539C46.9304 92.3296 47.3242 91.9572 47.6002 91.483C47.8761 91.0088 48.022 90.4539 48.0198 89.8871V81.1844H75.4179V89.8871C75.4156 90.4539 75.5615 91.0088 75.8375 91.483C76.1134 91.9572 76.5072 92.3296 76.9699 92.5539C77.4325 92.7782 77.9436 92.8445 78.4395 92.7446C78.9353 92.6446 79.3942 92.3828 79.7588 91.9917L95.1959 75.6002C95.6894 75.0409 95.9663 74.2848 95.9663 73.4968C95.9663 72.7088 95.6894 71.9527 95.1959 71.3933Z" fill="#E08589"/>
</g>
<defs>
<clipPath id="clip0_92_198">
<rect width="123.292" height="123.292" fill="white" transform="translate(0.072998 0.274414)"/>
</clipPath>
</defs>
</svg>
