<svg width="135" height="134" viewBox="0 0 135 134" fill="none" xmlns="http://www.w3.org/2000/svg">
<path d="M72.8671 73.1913C77.2949 73.1913 81.5413 75.11 84.6722 78.5254C87.8031 81.9408 89.5621 86.5731 89.5621 91.4032L89.5509 100.491C90.6973 122.788 74.954 133.91 45.7544 133.91C16.6551 133.91 0.56665 122.934 0.56665 100.807V91.4032C0.56665 86.5731 2.32558 81.9408 5.4565 78.5254C8.58742 75.11 12.8339 73.1913 17.2616 73.1913H72.8671V73.1913ZM117.387 73.1913C121.815 73.1913 126.061 75.11 129.192 78.5254C132.323 81.9408 134.082 86.5731 134.082 91.4032V97.7955C135.084 117.798 121.171 127.827 95.7448 127.827C92.2945 127.827 89.0501 127.645 86.0172 127.281C91.994 121.259 95.1883 113.094 95.1771 102.773L95.1048 100.151L95.1271 91.4032C95.1301 87.9571 94.4591 84.55 93.1587 81.4094C91.8584 78.2688 89.9587 75.4671 87.5865 73.1913H117.393H117.387ZM45.0866 0.34375C52.4677 0.34375 59.5465 3.5423 64.7658 9.23576C69.985 14.9292 72.9172 22.6512 72.9172 30.703C72.9172 38.7547 69.985 46.4767 64.7658 52.1702C59.5465 57.8636 52.4677 61.0622 45.0866 61.0622C37.7055 61.0622 30.6267 57.8636 25.4075 52.1702C20.1882 46.4767 17.2561 38.7547 17.2561 30.703C17.2561 22.6512 20.1882 14.9292 25.4075 9.23576C30.6267 3.5423 37.7055 0.34375 45.0866 0.34375V0.34375ZM100.737 12.485C106.64 12.485 112.302 15.0433 116.477 19.5972C120.651 24.151 122.997 30.3274 122.997 36.7675C122.997 43.2076 120.651 49.384 116.477 53.9379C112.302 58.4917 106.64 61.05 100.737 61.05C94.8329 61.05 89.171 58.4917 84.9964 53.9379C80.8218 49.384 78.4766 43.2076 78.4766 36.7675C78.4766 30.3274 80.8218 24.151 84.9964 19.5972C89.171 15.0433 94.8329 12.485 100.737 12.485Z" fill="#E08589"/>
</svg>
