<svg width="83" height="83" viewBox="0 0 83 83" fill="none" xmlns="http://www.w3.org/2000/svg">
<g clip-path="url(#clip0_77_179)">
<path d="M22.3677 34.6387C21.604 34.6387 20.8711 34.7552 20.1416 34.8613C20.3779 34.0668 20.6211 33.2586 21.0115 32.5325C21.4019 31.4777 22.0115 30.5633 22.6177 29.642C23.1246 28.6454 24.0185 27.9707 24.676 27.1179C25.3644 26.2892 26.3028 25.7378 27.0459 25.0494C27.7754 24.3302 28.7309 23.9706 29.4912 23.4637C30.2858 23.0082 30.9776 22.5048 31.7173 22.265L33.5633 21.5048L35.1866 20.8301L33.5256 14.1929L31.481 14.686C30.8269 14.8504 30.0289 15.0422 29.1214 15.2717C28.1932 15.4429 27.2035 15.9121 26.1007 16.3402C25.0116 16.8265 23.7513 17.1553 22.5801 17.9361C21.4019 18.6827 20.0423 19.306 18.8436 20.3061C17.6826 21.3369 16.2819 22.2308 15.2476 23.5425C14.1174 24.7686 13.001 26.0563 12.1345 27.5221C11.1311 28.9194 10.4495 30.4537 9.73032 31.9708C9.07961 33.488 8.55562 35.0394 8.12753 36.5463C7.31586 39.567 6.95283 42.4369 6.81242 44.8925C6.69598 47.3515 6.76447 49.3961 6.90831 50.8756C6.95968 51.5742 7.05558 52.2523 7.12407 52.7215L7.20969 53.2969L7.29873 53.2763C7.90787 56.1217 9.31011 58.7365 11.3433 60.8183C13.3764 62.9 15.9574 64.3636 18.7876 65.0398C21.6178 65.716 24.5816 65.5771 27.3362 64.6391C30.0908 63.7012 32.5235 62.0026 34.3531 59.7398C36.1826 57.477 37.3341 54.7425 37.6744 51.8526C38.0148 48.9627 37.53 46.0355 36.2762 43.4096C35.0223 40.7838 33.0507 38.5665 30.5894 37.0143C28.1281 35.4622 25.2776 34.6385 22.3677 34.6387ZM60.0402 34.6387C59.2764 34.6387 58.5435 34.7552 57.8141 34.8613C58.0504 34.0668 58.2935 33.2586 58.684 32.5325C59.0744 31.4777 59.684 30.5633 60.2902 29.642C60.797 28.6454 61.6909 27.9707 62.3485 27.1179C63.0368 26.2892 63.9752 25.7378 64.7184 25.0494C65.4479 24.3302 66.4034 23.9706 67.1637 23.4637C67.9582 23.0082 68.65 22.5048 69.3898 22.265L71.2357 21.5048L72.8591 20.8301L71.1981 14.1929L69.1535 14.686C68.4993 14.8504 67.7014 15.0422 66.7938 15.2717C65.8657 15.4429 64.8759 15.9121 63.7732 16.3402C62.6875 16.8299 61.4238 17.1553 60.2525 17.9396C59.0744 18.6862 57.7147 19.3095 56.5161 20.3095C55.3551 21.3404 53.9543 22.2342 52.9201 23.5425C51.7899 24.7686 50.6734 26.0563 49.807 27.5221C48.8035 28.9194 48.122 30.4537 47.4028 31.9708C46.7521 33.488 46.2281 35.0394 45.8 36.5463C44.9883 39.567 44.6253 42.4369 44.4849 44.8925C44.3684 47.3515 44.4369 49.3961 44.5808 50.8756C44.6321 51.5742 44.728 52.2523 44.7965 52.7215L44.8821 53.2969L44.9712 53.2763C45.5803 56.1217 46.9826 58.7365 49.0157 60.8183C51.0489 62.9 53.6298 64.3636 56.46 65.0398C59.2903 65.716 62.2541 65.5771 65.0087 64.6391C67.7632 63.7012 70.196 62.0026 72.0255 59.7398C73.855 57.477 75.0066 54.7425 75.3469 51.8526C75.6872 48.9627 75.2024 46.0355 73.9486 43.4096C72.6948 40.7838 70.7232 38.5665 68.2618 37.0143C65.8005 35.4622 62.95 34.6385 60.0402 34.6387Z" fill="white"/>
</g>
<defs>
<clipPath id="clip0_77_179">
<rect width="82.1944" height="82.1944" fill="white" transform="translate(0.106934 0.391113)"/>
</clipPath>
</defs>
</svg>
