<svg width="70" height="51" viewBox="0 0 70 51" fill="none" xmlns="http://www.w3.org/2000/svg">
<path d="M69.1365 13.0169L69.0507 12.4633L68.9615 12.4831C68.3518 9.74509 66.9472 7.22884 64.9102 5.22546C62.8732 3.22207 60.2872 1.81345 57.4512 1.16256C54.6153 0.511674 51.6453 0.645131 48.8851 1.54749C46.1248 2.44985 43.6871 4.08423 41.8538 6.26153C40.0206 8.43882 38.8669 11.07 38.5261 13.8507C38.1853 16.6314 38.6714 19.448 39.9282 21.9744C41.185 24.5009 43.161 26.634 45.6277 28.127C48.0944 29.62 50.9509 30.4118 53.8668 30.4109C54.632 30.4109 55.3663 30.2989 56.0972 30.1967C55.8604 30.9612 55.6168 31.7388 55.2256 32.4373C54.8344 33.4521 54.2236 34.3319 53.6163 35.2182C53.1084 36.1771 52.2128 36.8262 51.554 37.6466C50.8643 38.444 49.9241 38.9745 49.1795 39.6368C48.4486 40.3287 47.4912 40.6747 46.7295 41.1623C45.9334 41.6006 45.2402 42.0849 44.499 42.3156L42.6495 43.047L41.023 43.6961L42.6838 50.0851L44.7324 49.6106C45.3878 49.4524 46.1873 49.2679 47.0966 49.0471C48.0265 48.8824 49.0182 48.431 50.1231 48.0191C51.2109 47.5479 52.4771 47.2349 53.6506 46.4804C54.831 45.7621 56.1933 45.1624 57.3943 44.2003C58.5575 43.2085 59.9609 42.3485 60.9972 41.0898C62.1296 39.9102 63.2482 38.6713 64.1164 37.2611C65.1218 35.9168 65.8046 34.4406 66.5252 32.981C67.1772 31.5213 67.7022 30.0287 68.1311 28.5789C68.9444 25.6728 69.3081 22.9116 69.4488 20.5491C69.5654 18.1833 69.4968 16.2163 69.3527 14.7928C69.3045 14.1984 69.2324 13.606 69.1365 13.0169ZM31.3911 13.0169L31.3053 12.4633L31.2161 12.4831C30.6063 9.74509 29.2017 7.22884 27.1648 5.22546C25.1278 3.22207 22.5417 1.81345 19.7058 1.16256C16.8698 0.511674 13.8999 0.645131 11.1396 1.54749C8.37938 2.44985 5.94161 4.08423 4.10838 6.26153C2.27516 8.43882 1.12141 11.07 0.780633 13.8507C0.439854 16.6314 0.925972 19.448 2.18274 21.9744C3.43951 24.5009 5.41557 26.634 7.88227 28.127C10.349 29.62 13.2055 30.4118 16.1213 30.4109C16.8865 30.4109 17.6208 30.2989 18.3517 30.1967C18.115 30.9612 17.8713 31.7388 17.4802 32.4373C17.089 33.4521 16.4782 34.3319 15.8708 35.2182C15.363 36.1771 14.4674 36.8262 13.8086 37.6466C13.1188 38.444 12.1786 38.9745 11.434 39.6368C10.7031 40.3287 9.74578 40.6747 8.984 41.1623C8.18792 41.6006 7.49478 42.0849 6.75359 42.3156L4.90407 43.047C3.87121 43.4523 3.28101 43.6896 3.28101 43.6896L4.94181 50.0785L6.99036 49.604C7.64576 49.4458 8.44527 49.2613 9.3546 49.0406C10.2845 48.8758 11.2762 48.4244 12.3811 48.0125C13.4688 47.5413 14.735 47.2283 15.9086 46.4738C17.089 45.7555 18.4512 45.1558 19.6522 44.1937C20.8155 43.2019 22.2189 42.3419 23.2552 41.0833C24.3876 39.9037 25.5062 38.6648 26.3744 37.2545C27.3798 35.9102 28.0626 34.434 28.7832 32.9744C29.4352 31.5147 29.9602 30.0221 30.3891 28.5723C31.2023 25.6662 31.5661 22.905 31.7068 20.5425C31.8234 18.1768 31.7548 16.2097 31.6107 14.7862C31.5594 14.1941 31.4862 13.604 31.3911 13.0169Z" fill="white"/>
</svg>
