<svg width="71" height="58" viewBox="0 0 71 58" fill="none" xmlns="http://www.w3.org/2000/svg">
<path d="M70.4913 7.29952C67.8753 8.45761 65.1002 9.21615 62.2588 9.54977C65.2502 7.75854 67.4889 4.94154 68.5583 1.62297C65.745 3.29024 62.6689 4.46752 59.4613 5.10459C57.4962 3.00383 54.9446 1.54291 52.1381 0.911772C49.3316 0.280637 46.4002 0.508496 43.7249 1.56572C41.0497 2.62294 38.7545 4.46061 37.1376 6.83978C35.5208 9.21895 34.6572 12.0295 34.6591 14.9061C34.6591 16.0327 34.7843 17.1243 35.0375 18.1694C29.3363 17.8888 23.7581 16.41 18.6666 13.8294C13.5751 11.2487 9.08448 7.62422 5.48744 3.19203C4.20942 5.3797 3.53908 7.86909 3.54576 10.4027C3.54576 15.3719 6.06965 19.7617 9.92388 22.3322C7.64731 22.26 5.42123 21.6431 3.43223 20.5332V20.7166C3.43026 24.0269 4.57461 27.2359 6.67081 29.798C8.76701 32.3601 11.6857 34.1174 14.9309 34.7711C12.8206 35.3499 10.6054 35.4355 8.45671 35.0215C9.37197 37.8694 11.1539 40.3603 13.5536 42.1462C15.9533 43.9322 18.851 44.924 21.8417 44.9831C18.8685 47.3168 15.4642 49.0413 11.8238 50.0578C8.18331 51.0743 4.37811 51.3629 0.625977 50.9071C7.17737 55.1231 14.805 57.3618 22.5957 57.3551C48.964 57.3551 63.3854 35.5105 63.3854 16.5654C63.3854 15.9541 63.3621 15.3253 63.3388 14.7111C66.1408 12.6822 68.5622 10.1741 70.4913 7.30243V7.29952Z" fill="#EFA6A6"/>
</svg>
